<svg xmlns="http://www.w3.org/2000/svg" viewBox="0 0 1667 469" width="1667" height="469">
	<defs>
		<clipPath clipPathUnits="userSpaceOnUse" id="cp1">
			<path d="M0 0L1667 0L1667 469L0 469Z" />
		</clipPath>
		<linearGradient id="grd1" gradientUnits="userSpaceOnUse"  x1="273.537" y1="68.374" x2="273.537" y2="382.545">
			<stop offset="0" stop-color="#ffffff"  />
			<stop offset="0.516" stop-color="#cbccce"  />
			<stop offset="1" stop-color="#ffffff"  />
		</linearGradient>
	</defs>
	<style>
		tspan { white-space:pre }
		.shp0 { fill: url(#grd1) } 
		.shp1 { fill: #ffffff } 
		.shp2 { fill: #000000 }
		.shp3 { fill: #ed0606 } 
	</style>
	<g id="Page 1" clip-path="url(#cp1)">
		<path id="Path 1" class="shp0" d="M16.33 -0.14L16.33 456.93L530.74 456.93L530.74 -0.14L16.33 -0.14Z" />
		<path id="Path 2" class="shp1" d="M544.37 408.36L533.45 408.36C531.96 408.36 530.74 407.15 530.74 405.65L530.74 51.14C530.74 49.64 531.96 48.43 533.45 48.43L544.37 48.43C545.86 48.43 547.07 49.64 547.07 51.14L547.07 405.65C547.07 407.15 545.86 408.36 544.37 408.36Z" />
		<path id="Path 3" fill-rule="evenodd" class="shp2" d="M667.32 178.72L665.58 151.8L670.9 151.8C673.57 161.73 678.17 169.72 684.72 175.76C691.27 181.9 699.05 184.97 708.16 184.97C715.84 184.97 722.19 182.61 727.2 177.9C732.12 173.3 734.57 167.36 734.57 160.2C734.57 153.34 732.22 147.71 727.51 143.1C722.7 138.6 715.23 133.89 704.99 128.98C699.67 126.42 695.16 124.06 691.58 121.81C688 119.66 684.21 116.8 680.22 113.42C672.24 106.66 668.14 97.86 668.14 87.31C668.14 77.59 671.82 69.5 679.2 63.26C686.46 57.02 697.11 53.94 710.93 53.94C716.76 53.94 722.19 54.46 726.79 55.68C731.3 57.02 734.27 57.83 737.95 59.78C741.94 61.93 742.25 61.93 745.83 64.39C747.37 65.51 748.29 66.23 748.6 66.33L749.31 93.56L744.4 93.56C738.77 71.75 727.72 60.9 711.13 60.9C703.66 60.9 698.03 62.85 694.24 66.64C690.46 70.42 688.51 75.23 688.51 80.97C688.51 86.7 690.66 91.72 695.06 95.91C699.36 100.21 706.42 104.72 716.15 109.32C720.75 111.57 724.34 113.31 726.69 114.54C729.05 115.77 732.42 117.82 736.93 120.79C741.33 123.76 744.81 126.62 747.16 129.39C751.98 135.02 756.58 143.92 756.58 153.75C756.58 165.11 751.98 174.22 742.87 181.28C733.76 188.35 722.39 191.93 708.98 191.93C694.14 191.93 680.32 187.53 667.32 178.72ZM772.23 189.37L772.23 184.77C779.29 183.44 783.8 182 785.74 180.57C788.4 178.32 789.74 174.22 789.63 168.18L789.63 78.51C789.63 72.06 789.22 68.38 785.33 65.92C783.39 64.8 781.96 64.08 781.03 63.77C780.11 63.46 777.76 63.06 773.97 62.34C773.25 62.24 772.74 62.03 772.23 61.93L772.23 57.32L831.81 57.32L831.81 61.93C831.4 62.03 825.97 62.95 825.56 63.06C825.05 63.16 824.13 63.36 822.8 63.67C820.03 64.39 819.93 64.9 817.89 65.82C815.33 67.05 814.3 68.89 813.07 71.55C812.66 73.19 812.15 75.65 812.15 78.51L812.15 165.93C812.15 172.89 813.38 177.29 815.84 179.03C818.19 180.88 823.51 181.8 831.81 181.8L846.65 181.8C855.04 181.8 861.49 180.06 866.1 176.47C870.6 172.89 874.8 166.34 878.79 156.72L884.42 156.72L875.82 189.37L772.23 189.37ZM916.86 172.38C904.27 159.38 897.92 143.1 897.92 123.55C897.92 104 904.27 87.42 917.06 74.01C929.76 60.6 945.93 53.95 965.48 53.95C984.83 53.95 1000.69 60.5 1013.29 73.5C1025.88 86.6 1032.12 102.87 1032.12 122.43C1032.12 141.98 1025.77 158.46 1013.08 171.87C1000.39 185.28 984.21 191.93 964.66 191.93C945.32 191.93 929.45 185.38 916.86 172.38ZM996.91 169.41C1004.38 159.48 1008.06 145.97 1008.06 128.77C1008.06 109.02 1003.66 92.95 994.96 80.36C986.26 67.76 975.21 61.52 961.9 61.52C950.13 61.52 940.61 66.54 933.24 76.47C925.77 86.5 922.08 100.11 922.08 117.21C922.08 136.76 926.48 152.83 935.18 165.42C943.88 178.01 954.83 184.36 968.14 184.36C979.91 184.36 989.44 179.34 996.91 169.41ZM1161.49 55.17L1163.13 92.13L1158.73 92.13C1157.19 82.2 1154.33 75.03 1150.23 70.63C1146.14 66.23 1138.77 63.98 1128.12 63.98L1116.14 63.98L1116.14 168.18C1116.14 173.81 1117.99 177.29 1119.21 179.34C1119.83 180.46 1121.36 181.39 1123.72 182.1C1126.07 182.92 1127.91 183.43 1129.04 183.64C1130.17 183.84 1132.62 184.25 1136.51 184.76L1136.51 189.37L1073.46 189.37L1073.46 184.76C1077.35 184.25 1079.91 183.84 1081.03 183.64C1082.16 183.43 1083.9 182.92 1086.25 182.1C1088.61 181.39 1090.04 180.46 1090.76 179.34C1091.98 177.29 1093.73 173.81 1093.73 168.18L1093.73 63.98L1082.47 63.98C1071.51 63.98 1064.04 66.13 1059.84 70.53C1055.65 74.93 1052.68 82.2 1051.14 92.13L1046.74 92.13L1048.48 55.17L1059.13 57.32L1150.74 57.32L1161.49 55.17ZM1181.54 178.72L1179.8 151.8L1185.12 151.8C1187.78 161.73 1192.39 169.72 1198.94 175.76C1205.49 181.9 1213.27 184.97 1222.38 184.97C1230.06 184.97 1236.41 182.61 1241.42 177.9C1246.33 173.3 1248.79 167.36 1248.79 160.2C1248.79 153.34 1246.44 147.71 1241.73 143.1C1236.92 138.6 1229.45 133.89 1219.21 128.98C1213.88 126.42 1209.38 124.06 1205.8 121.81C1202.22 119.66 1198.43 116.8 1194.44 113.42C1186.45 106.66 1182.36 97.86 1182.36 87.31C1182.36 77.59 1186.04 69.5 1193.41 63.26C1200.68 57.02 1211.33 53.94 1225.15 53.94C1230.98 53.94 1236.41 54.46 1241.01 55.68C1245.52 57.02 1248.49 57.83 1252.17 59.78C1256.16 61.93 1256.47 61.93 1260.05 64.39C1261.59 65.51 1262.51 66.23 1262.81 66.33L1263.53 93.56L1258.62 93.56C1252.99 71.75 1241.93 60.9 1225.35 60.9C1217.88 60.9 1212.25 62.85 1208.46 66.64C1204.67 70.42 1202.73 75.23 1202.73 80.97C1202.73 86.7 1204.88 91.72 1209.28 95.91C1213.58 100.21 1220.64 104.72 1230.37 109.32C1234.97 111.57 1238.55 113.31 1240.91 114.54C1243.26 115.77 1246.64 117.82 1251.15 120.79C1255.55 123.76 1259.03 126.62 1261.38 129.39C1266.19 135.02 1270.8 143.92 1270.8 153.75C1270.8 165.11 1266.19 174.22 1257.08 181.28C1247.97 188.35 1236.61 191.93 1223.2 191.93C1208.36 191.93 1194.54 187.53 1181.54 178.72Z" />
		<path id="Path 4" fill-rule="evenodd" class="shp3" d="M667.32 172.69L665.58 145.77L670.9 145.77C673.57 155.7 678.17 163.68 684.72 169.72C691.27 175.86 699.05 178.93 708.16 178.93C715.84 178.93 722.19 176.58 727.2 171.87C732.12 167.26 734.57 161.33 734.57 154.16C734.57 147.3 732.22 141.67 727.51 137.07C722.7 132.56 715.23 127.86 704.99 122.94C699.67 120.38 695.16 118.03 691.58 115.78C688 113.63 684.21 110.76 680.22 107.38C672.24 100.63 668.14 91.82 668.14 81.28C668.14 71.56 671.82 63.47 679.2 57.23C686.46 50.98 697.11 47.91 710.93 47.91C716.76 47.91 722.19 48.42 726.79 49.65C731.3 50.98 734.27 51.8 737.95 53.74C741.94 55.89 742.25 55.89 745.83 58.35C747.37 59.48 748.29 60.19 748.6 60.3L749.31 87.52L744.4 87.52C738.77 65.72 727.72 54.87 711.13 54.87C703.66 54.87 698.03 56.82 694.24 60.6C690.46 64.39 688.51 69.2 688.51 74.93C688.51 80.67 690.66 85.68 695.06 89.88C699.36 94.18 706.42 98.68 716.15 103.29C720.75 105.54 724.34 107.28 726.69 108.51C729.05 109.74 732.42 111.78 736.93 114.75C741.33 117.72 744.81 120.59 747.16 123.35C751.98 128.98 756.58 137.89 756.58 147.71C756.58 159.08 751.98 168.19 742.87 175.25C733.76 182.31 722.39 185.9 708.98 185.9C694.14 185.9 680.32 181.49 667.32 172.69ZM772.23 183.34L772.23 178.73C779.29 177.4 783.8 175.97 785.74 174.53C788.4 172.28 789.74 168.19 789.63 162.15L789.63 72.48C789.63 66.03 789.22 62.34 785.33 59.89C783.39 58.76 781.96 58.04 781.03 57.74C780.11 57.43 777.76 57.02 773.97 56.3C773.25 56.2 772.74 56 772.23 55.89L772.23 51.29L831.81 51.29L831.81 55.89C831.4 56 825.97 56.92 825.56 57.02C825.05 57.12 824.13 57.33 822.8 57.63C820.03 58.35 819.93 58.86 817.89 59.78C815.33 61.01 814.3 62.85 813.07 65.52C812.66 67.15 812.15 69.61 812.15 72.48L812.15 159.9C812.15 166.86 813.38 171.26 815.84 173C818.19 174.84 823.51 175.76 831.81 175.76L846.65 175.76C855.04 175.76 861.49 174.02 866.1 170.44C870.6 166.86 874.8 160.3 878.79 150.68L884.42 150.68L875.82 183.34L772.23 183.34ZM916.86 166.34C904.27 153.34 897.92 137.07 897.92 117.52C897.92 97.96 904.27 81.38 917.06 67.97C929.76 54.56 945.93 47.91 965.48 47.91C984.83 47.91 1000.69 54.46 1013.29 67.46C1025.88 80.56 1032.12 96.84 1032.12 116.39C1032.12 135.94 1025.77 152.42 1013.08 165.83C1000.39 179.24 984.21 185.9 964.66 185.9C945.32 185.9 929.45 179.34 916.86 166.34ZM996.91 163.38C1004.38 153.45 1008.06 139.93 1008.06 122.74C1008.06 102.98 1003.66 86.91 994.96 74.32C986.26 61.73 975.21 55.49 961.9 55.49C950.13 55.49 940.61 60.5 933.24 70.43C925.77 80.46 922.08 94.08 922.08 111.17C922.08 130.72 926.48 146.79 935.18 159.38C943.88 171.97 954.83 178.32 968.14 178.32C979.91 178.32 989.44 173.3 996.91 163.38ZM1161.49 49.14L1163.13 86.09L1158.73 86.09C1157.19 76.16 1154.33 69 1150.23 64.6C1146.14 60.19 1138.77 57.94 1128.12 57.94L1116.14 57.94L1116.14 162.15C1116.14 167.78 1117.99 171.26 1119.21 173.3C1119.83 174.43 1121.36 175.35 1123.72 176.07C1126.07 176.89 1127.91 177.4 1129.04 177.6C1130.17 177.81 1132.62 178.22 1136.51 178.73L1136.51 183.34L1073.46 183.34L1073.46 178.73C1077.35 178.22 1079.91 177.81 1081.03 177.6C1082.16 177.4 1083.9 176.89 1086.25 176.07C1088.61 175.35 1090.04 174.43 1090.76 173.3C1091.98 171.26 1093.73 167.78 1093.73 162.15L1093.73 57.94L1082.47 57.94C1071.51 57.94 1064.04 60.09 1059.84 64.49C1055.65 68.89 1052.68 76.16 1051.14 86.09L1046.74 86.09L1048.48 49.14L1059.13 51.29L1150.74 51.29L1161.49 49.14ZM1181.54 172.69L1179.8 145.77L1185.12 145.77C1187.78 155.7 1192.39 163.68 1198.94 169.72C1205.49 175.86 1213.27 178.93 1222.38 178.93C1230.06 178.93 1236.41 176.58 1241.42 171.87C1246.33 167.26 1248.79 161.33 1248.79 154.16C1248.79 147.3 1246.44 141.67 1241.73 137.07C1236.92 132.56 1229.45 127.86 1219.21 122.94C1213.88 120.38 1209.38 118.03 1205.8 115.78C1202.22 113.63 1198.43 110.76 1194.44 107.38C1186.45 100.63 1182.36 91.82 1182.36 81.28C1182.36 71.56 1186.04 63.47 1193.41 57.23C1200.68 50.98 1211.33 47.91 1225.15 47.91C1230.98 47.91 1236.41 48.42 1241.01 49.65C1245.52 50.98 1248.49 51.8 1252.17 53.74C1256.16 55.89 1256.47 55.89 1260.05 58.35C1261.59 59.48 1262.51 60.19 1262.81 60.3L1263.53 87.52L1258.62 87.52C1252.99 65.72 1241.93 54.87 1225.35 54.87C1217.88 54.87 1212.25 56.82 1208.46 60.6C1204.67 64.39 1202.73 69.2 1202.73 74.93C1202.73 80.67 1204.88 85.68 1209.28 89.88C1213.58 94.18 1220.64 98.68 1230.37 103.29C1234.97 105.54 1238.55 107.28 1240.91 108.51C1243.26 109.74 1246.64 111.78 1251.15 114.75C1255.55 117.72 1259.03 120.59 1261.38 123.35C1266.19 128.98 1270.8 137.89 1270.8 147.71C1270.8 159.08 1266.19 168.19 1257.08 175.25C1247.97 182.31 1236.61 185.9 1223.2 185.9C1208.36 185.9 1194.54 181.49 1181.54 172.69Z" />
		<path id="Path 5" class="shp1" d="M13.62 408.36L2.71 408.36C1.21 408.36 0 407.15 0 405.65L0 51.14C0 49.64 1.21 48.43 2.71 48.43L13.62 48.43C15.12 48.43 16.33 49.64 16.33 51.14L16.33 405.65C16.33 407.15 15.12 408.36 13.62 408.36Z" />
		<path id="Path 6" class="shp2" d="M170.22 24L168.5 11.93L153.66 11.93L116.41 134.04L131.24 134.04C138.83 117.83 147.11 105.76 156.42 98.17C165.74 90.58 174.02 86.09 181.95 84.71C189.54 83.33 201.96 82.64 218.86 82.64L374.78 82.64C281.99 222.01 217.48 350.68 180.57 469L239.21 469C273.37 322.39 337.18 177.51 430.67 34.69L423.08 24L170.22 24Z" />
		<path id="Path 7" class="shp3" d="M170.22 11.93L168.5 -0.14L153.66 -0.14L116.41 121.97L131.24 121.97C138.83 105.76 147.11 93.69 156.42 86.1C165.74 78.51 174.02 74.02 181.95 72.65C189.54 71.27 201.96 70.58 218.86 70.58L374.78 70.58C281.99 209.94 217.48 338.61 180.57 456.93L239.21 456.93C273.37 310.33 337.18 165.44 430.67 22.63L423.08 11.93L170.22 11.93Z" />
		<path id="Path 8" fill-rule="evenodd" class="shp1" d="M707.7 330.04L707.7 373.89C707.7 380.08 707.94 384.57 708.41 387.36C708.89 390.16 709.6 392.26 710.54 393.68C711.49 395.1 712.78 396.26 714.41 397.16C716.04 398.07 718.84 399.08 722.79 400.2L722.79 406.51L668.37 406.51L668.37 400.2C673.71 398.82 677.27 397.29 679.08 395.62C680.88 393.94 682.07 391.56 682.62 388.46C683.18 385.37 683.46 380.64 683.46 374.28L683.46 262.73C683.46 256.8 683.25 252.48 682.82 249.77C682.39 247.07 681.68 244.96 680.69 243.45C679.7 241.95 678.39 240.75 676.76 239.84C675.12 238.94 672.33 237.93 668.37 236.82L668.37 230.49L732.21 230.49C752.32 230.49 767.37 234.15 777.34 241.46C787.31 248.76 792.3 260.11 792.3 275.5C792.3 287.28 789.05 297.29 782.56 305.55C776.07 313.8 766.33 320.24 753.35 324.89L753.35 325.92C758.6 328.07 763.09 331.14 766.83 335.14C770.57 339.14 774.71 345.35 779.27 353.77L790.88 374.92C794.23 381.11 797.11 385.84 799.52 389.11C801.92 392.37 804.38 394.87 806.87 396.58C809.36 398.3 812.67 399.51 816.8 400.2L816.8 406.51L781.08 406.51C777.81 401.96 774.71 397.06 771.79 391.81C768.87 386.57 765.99 381.24 763.16 375.82L751.81 354.29C748.37 347.76 745.55 342.94 743.36 339.85C741.17 336.75 739.15 334.58 737.3 333.33C735.45 332.09 733.47 331.23 731.37 330.76C729.26 330.28 726.1 330.04 721.89 330.04L707.7 330.04ZM707.7 242.36L707.7 318.96L722.28 318.96C729.76 318.96 735.82 318.42 740.46 317.34C745.1 316.27 749.4 314.23 753.35 311.22C757.31 308.21 760.47 304.02 762.83 298.65C765.2 293.27 766.38 286.68 766.38 278.85C766.38 270.69 764.98 263.9 762.19 258.48C759.39 253.06 755.16 248.94 749.49 246.1C743.81 243.26 736.16 241.84 726.53 241.84C718.8 241.84 712.52 242.02 707.7 242.36ZM952.97 230.5L952.97 269.44L940.34 269.44C939.05 265.23 937.71 261.53 936.34 258.35C934.96 255.17 933.55 252.5 932.08 250.36C930.62 248.21 929.01 246.49 927.25 245.2C925.49 243.91 923.4 243.03 920.99 242.55C918.58 242.08 915.71 241.84 912.35 241.84L871.61 241.84L871.61 309.42L899.2 309.42C902.98 309.42 905.95 308.88 908.1 307.8C910.25 306.73 912.03 304.9 913.45 302.32C914.87 299.74 916.22 295.7 917.51 290.2L929.63 290.2L929.63 339.72L917.51 339.72C916.31 334.56 914.97 330.67 913.51 328.05C912.05 325.43 910.31 323.56 908.29 322.44C906.27 321.32 903.24 320.76 899.2 320.76L871.61 320.76L871.61 395.17L911.71 395.17C915.92 395.17 919.34 394.8 921.96 394.07C924.58 393.34 926.84 392.09 928.73 390.33C930.62 388.57 932.3 386.27 933.76 383.43C935.22 380.6 936.44 377.65 937.43 374.6C938.42 371.55 939.78 367.1 941.5 361.25L954.26 361.25L951.81 406.52L832.4 406.52L832.4 400.2C837.73 398.82 841.3 397.29 843.11 395.62C844.91 393.94 846.09 391.56 846.65 388.46C847.21 385.37 847.49 380.64 847.49 374.28L847.49 262.74C847.49 256.8 847.27 252.48 846.85 249.78C846.41 247.07 845.7 244.96 844.72 243.45C843.73 241.95 842.42 240.75 840.79 239.85C839.15 238.94 836.36 237.93 832.4 236.82L832.4 230.5L952.97 230.5ZM1069.41 406.51L1069.41 400.2C1073.71 399.34 1076.91 398.39 1079.02 397.36C1081.13 396.33 1082.7 394.89 1083.73 393.04C1084.76 391.19 1085.28 388.72 1085.28 385.63C1085.28 382.7 1084.93 379.54 1084.24 376.15C1083.55 372.75 1082.57 368.95 1081.28 364.73L1076.51 348.1L1016.41 348.1L1012.03 360.74C1009.79 367.1 1008.33 371.92 1007.65 375.18C1006.96 378.45 1006.61 381.42 1006.61 384.08C1006.61 389.24 1007.93 393.02 1010.55 395.43C1013.17 397.83 1017.19 399.42 1022.61 400.2L1022.61 406.51L967.54 406.51L967.54 400.2C972.36 399.42 976.55 396.63 980.11 391.81C983.68 387 987.14 380.12 990.5 371.18L1044.27 228.43L1064.64 228.43L1108.49 372.21C1110.55 378.92 1112.38 384.03 1113.97 387.56C1115.56 391.09 1117.47 393.84 1119.7 395.81C1121.94 397.79 1124.99 399.25 1128.86 400.2L1128.86 406.51L1069.41 406.51ZM1019.9 336.88L1073.8 336.88L1049.3 253.71L1019.9 336.88ZM1186.12 394.65L1219.9 394.65C1223.59 394.65 1226.69 394.44 1229.18 394.01C1231.68 393.58 1233.8 392.91 1235.57 392.01C1237.33 391.1 1238.92 389.86 1240.34 388.27C1241.76 386.68 1243.11 384.59 1244.4 382.01C1245.69 379.44 1246.91 376.19 1248.08 372.28C1249.24 368.37 1250.67 362.5 1252.4 354.68L1265.42 354.68L1262.84 406.52L1146.91 406.52L1146.91 400.2C1152.24 398.82 1155.81 397.29 1157.62 395.62C1159.42 393.94 1160.6 391.56 1161.16 388.46C1161.72 385.37 1162 380.64 1162 374.28L1162 262.74C1162 256.8 1161.78 252.48 1161.36 249.78C1160.92 247.07 1160.21 244.96 1159.23 243.45C1158.24 241.95 1156.93 240.75 1155.3 239.85C1153.66 238.94 1150.87 237.93 1146.91 236.82L1146.91 230.5L1201.2 230.5L1201.2 236.82C1197.42 237.85 1194.73 238.77 1193.14 239.59C1191.55 240.4 1190.24 241.5 1189.21 242.88C1188.18 244.25 1187.4 246.36 1186.89 249.19C1186.37 252.03 1186.12 256.54 1186.12 262.74L1186.12 394.65ZM1327.96 374.28C1327.96 380.04 1328.16 384.25 1328.54 386.91C1328.93 389.58 1329.57 391.68 1330.48 393.23C1331.38 394.78 1332.71 396.07 1334.47 397.1C1336.23 398.13 1339.09 399.17 1343.05 400.2L1343.05 406.51L1288.63 406.51L1288.63 400.2C1293.96 398.82 1297.53 397.29 1299.33 395.62C1301.14 393.94 1302.32 391.56 1302.88 388.46C1303.44 385.37 1303.72 380.64 1303.72 374.28L1303.72 262.73C1303.72 256.8 1303.5 252.48 1303.07 249.78C1302.64 247.07 1301.93 244.96 1300.95 243.45C1299.96 241.95 1298.65 240.75 1297.01 239.84C1295.38 238.94 1292.59 237.93 1288.63 236.82L1288.63 230.49L1343.05 230.49L1343.05 236.82C1339.26 237.76 1336.54 238.71 1334.86 239.65C1333.18 240.6 1331.85 241.78 1330.86 243.2C1329.87 244.61 1329.14 246.74 1328.67 249.58C1328.2 252.42 1327.96 256.8 1327.96 262.73L1327.96 374.28ZM1367.16 230.5L1506.69 230.5L1506.69 275.37L1494.05 275.37C1492.16 267.98 1490.29 262.13 1488.44 257.83C1486.59 253.54 1484.64 250.27 1482.57 248.03C1480.51 245.8 1478.3 244.21 1475.93 243.26C1473.57 242.32 1470.02 241.84 1465.29 241.84L1448.92 241.84L1448.92 373.89C1448.92 378.96 1449.19 383 1449.76 386.01C1450.31 389.02 1451.17 391.41 1452.34 393.17C1453.5 394.93 1455.06 396.31 1457.04 397.29C1459.02 398.29 1462.11 399.25 1466.33 400.2L1466.33 406.52L1407.4 406.52L1407.4 400.2C1409.97 399.6 1412.25 398.95 1414.23 398.26C1416.21 397.58 1417.82 396.74 1419.06 395.75C1420.31 394.76 1421.34 393.49 1422.16 391.94C1422.98 390.4 1423.62 388.29 1424.09 385.63C1424.57 382.96 1424.8 379.05 1424.8 373.89L1424.8 241.84L1408.56 241.84C1404.51 241.84 1401.18 242.23 1398.56 243C1395.94 243.78 1393.51 245.39 1391.28 247.84C1389.04 250.29 1387 253.77 1385.15 258.29C1383.3 262.8 1381.56 268.5 1379.93 275.37L1367.16 275.37L1367.16 230.5ZM1577.35 332.63L1541.76 266.47C1537.46 258.48 1534.19 252.76 1531.96 249.33C1529.73 245.89 1527.49 243.18 1525.25 241.2C1523.02 239.22 1520.44 237.76 1517.52 236.82L1517.52 230.5L1572.45 230.5L1572.45 236.82C1564.37 237.76 1560.33 241.25 1560.33 247.26C1560.33 249.75 1560.91 252.55 1562.07 255.64C1563.23 258.74 1565.31 263.12 1568.33 268.8L1594.12 317.93L1619.52 273.05C1622.96 266.95 1625.39 261.94 1626.81 258.03C1628.22 254.12 1628.93 250.53 1628.93 247.26C1628.93 244.17 1628.01 241.74 1626.16 239.98C1624.31 238.21 1621.58 237.16 1617.97 236.82L1617.97 230.5L1666.85 230.5L1666.85 236.82C1663.32 238.1 1660.22 239.89 1657.56 242.17C1654.89 244.45 1652.19 247.52 1649.44 251.39C1646.68 255.26 1642.64 261.79 1637.31 270.99L1601.47 332.11L1601.47 373.89C1601.47 378.79 1601.72 382.75 1602.24 385.75C1602.76 388.76 1603.61 391.17 1604.82 392.98C1606.02 394.78 1607.61 396.2 1609.59 397.23C1611.57 398.26 1614.66 399.25 1618.87 400.2L1618.87 406.52L1559.94 406.52L1559.94 400.2C1564.07 399.34 1567.12 398.42 1569.1 397.42C1571.08 396.44 1572.67 395.02 1573.87 393.17C1575.07 391.32 1575.95 388.89 1576.52 385.88C1577.07 382.87 1577.35 378.88 1577.35 373.89L1577.35 332.63Z" />
	</g>
</svg>